# xmcd
#
# Track frame offsets: 
#        150
#        20861
#        35531
#        53060
#        70216
#        94018
#        107883
#        122359
#        143261
#        163952
#        181487
#        197941
#        211820
#        235556
#        257581
#        278715
#        299582
#
# Disc length: 4193 seconds
#
# Revision: 0
# Processed by: cddbd v1.5PL3 Copyright (c) Steve Scherf et al.
# Submitted via: ExactAudioCopy v0.95a5
#
DISCID=f7105f11
DTITLE=張衛健 - 我不是
DYEAR=1900
DGENRE=
TTITLE0=你愛我像誰
TTITLE1=我要輕閒
TTITLE2=天生好手
TTITLE3=男人的煩惱
TTITLE4=美麗的姑娘
TTITLE5=少年夢
TTITLE6=一輩子一場夢
TTITLE7=羅密歐與流浪狗
TTITLE8=這是我的愛
TTITLE9=他不愛我
TTITLE10=大丈夫
TTITLE11=醉凡塵
TTITLE12=釋放
TTITLE13=眼淚\說
TTITLE14=退伍
TTITLE15=溫柔哭了
TTITLE16=許\願樹
EXTD=
EXTT0=
EXTT1=
EXTT2=
EXTT3=
EXTT4=
EXTT5=
EXTT6=
EXTT7=
EXTT8=
EXTT9=
EXTT10=
EXTT11=
EXTT12=
EXTT13=
EXTT14=
EXTT15=
EXTT16=
PLAYORDER=
